PathFileType	4	(X/Y/Z)	/Users/itak/Documents/Research/Walk-IL/dataset/trc/00507_00183.trc
DataRate	CameraRate	NumFrames	NumMarkers	Units	OrigDataRate	OrigDataStartFrame	OrigNumFrames
100.000000	100.000000	4	53	mm	100.000000	213	341
Frame#	Time	RPSI			LPSI			L3			STRN			T10			C7			CLAV			RBAK			LBAK			LSHO			LUPA			LAEL			LAOL			LWTS			LWPS			LFRA			LIFD			LHPS			LHTS			RSHO			RUPA			RAEL			RAOL			RWTS			RWPS			RFRA			RIFD			RHTS			RHPS			RBHD			LFHD			RFHD			LBHD			LHIP			RASI			LASI			LKNE			LTHI			LANK			LTIP			LTOE			LMT1			LMT5			LHEE			RKNE			RTHI			RANK			RTIP			RTOE			RMT1			RMT5			RHEE			RHIP			
		X1	Y1	Z1	X2	Y2	Z2	X3	Y3	Z3	X4	Y4	Z4	X5	Y5	Z5	X6	Y6	Z6	X7	Y7	Z7	X8	Y8	Z8	X9	Y9	Z9	X10	Y10	Z10	X11	Y11	Z11	X12	Y12	Z12	X13	Y13	Z13	X14	Y14	Z14	X15	Y15	Z15	X16	Y16	Z16	X17	Y17	Z17	X18	Y18	Z18	X19	Y19	Z19	X20	Y20	Z20	X21	Y21	Z21	X22	Y22	Z22	X23	Y23	Z23	X24	Y24	Z24	X25	Y25	Z25	X26	Y26	Z26	X27	Y27	Z27	X28	Y28	Z28	X29	Y29	Z29	X30	Y30	Z30	X31	Y31	Z31	X32	Y32	Z32	X33	Y33	Z33	X34	Y34	Z34	X35	Y35	Z35	X36	Y36	Z36	X37	Y37	Z37	X38	Y38	Z38	X39	Y39	Z39	X40	Y40	Z40	X41	Y41	Z41	X42	Y42	Z42	X43	Y43	Z43	X44	Y44	Z44	X45	Y45	Z45	X46	Y46	Z46	X47	Y47	Z47	X48	Y48	Z48	X49	Y49	Z49	X50	Y50	Z50	X51	Y51	Z51	X52	Y52	Z52	X53	Y53	Z53	

214	2.13	756.6368408203125	914.0712890625	671.8428344726562	826.898193359375	898.8599853515625	570.9660034179688	790.6084594726562	986.219970703125	622.0874633789062	990.7554931640625	1155.274047851562	708.4488525390625	775.5447387695312	1093.280883789062	621.164794921875	817.2845458984375	1325.032348632812	635.6611328125	957.413330078125	1248.492797851562	691.63916015625	739.6577758789062	1204.432861328125	701.81005859375	825.12890625	1267.4296875	549.1854858398438	940.1502075195312	1310.159301757812	510.6503601074219	928.5186157226562	1194.03076171875	441.2920837402344	913.0230712890625	1017.213256835938	409.9962158203125	818.641357421875	986.2762451171875	432.4306335449219	1055.27490234375	939.7843627929688	543.418701171875	1038.891845703125	866.586181640625	485.6082153320312	959.7953491210938	974.5889282226562	434.0030822753906	1125.321166992188	804.458251953125	592.2938232421875	1084.2412109375	842.5189819335938	504.4693298339844	1111.899169921875	878.3259887695312	550.7725219726562	813.897216796875	1324.242797851562	794.5020751953125	776.1056518554688	1261.586547851562	845.3154907226562	756.6483764648438	1008.465515136719	914.7528686523438	730.2117309570312	971.0556640625	866.6171875	958.720703125	933.4846801757812	947.7979736328125	905.567626953125	875.1642456054688	992.0065307617188	782.6395874023438	969.8580932617188	933.4857177734375	1056.4990234375	814.4773559570312	997.1012573242188	1022.119812011719	877.0319213867188	998.4537963867188	966.7178344726562	835.905029296875	1017.543395996094	789.6674194335938	1456.2021484375	702.6829833984375	949.9169311523438	1562.269653320312	647.2263793945312	879.891357421875	1549.0205078125	752.7891845703125	867.9708251953125	1464.302490234375	564.570556640625	999.0430297851562	836.7919921875	536.5377807617188	891.6631469726562	882.4138793945312	841.4227905273438	1028.596435546875	887.6255493164062	641.1566162109375	1201.5732421875	522.7391967773438	713.1487426757812	1128.510620117188	641.7604370117188	644.5379638671875	1107.062622070312	106.7457885742188	603.332763671875	1190.947021484375	384.6695556640625	679.6962890625	1252.669921875	50.11465454101562	722.5537109375	1175.299072265625	63.70786285400391	729.0245971679688	1204.460327148438	69.96058654785156	628.284423828125	1042.08544921875	112.0513534545898	641.1531982421875	857.7293090820312	446.2247619628906	775.2460327148438	816.0733032226562	697.7369995117188	850.646484375	715.46240234375	66.53266906738281	603.3058471679688	847.1251831054688	303.0928649902344	730.728515625	888.2140502929688	32.26026916503906	698.8329467773438	865.895751953125	37.61569595336914	626.3099975585938	788.88525390625	42.2650260925293	684.5772094726562	702.0016479492188	67.53916168212891	533.0326538085938	774.1962890625	829.7314453125	843.6788940429688	
215	2.14	772.1047973632812	920.01123046875	681.6524658203125	842.6156616210938	904.9929809570312	581.0823974609375	806.0128784179688	991.4952392578125	634.1788330078125	1006.503540039062	1161.438232421875	715.7380981445312	789.4205932617188	1098.17333984375	633.7545166015625	830.5392456054688	1329.9453125	646.4493408203125	972.346435546875	1254.475341796875	699.1845092773438	754.7700805664062	1209.407592773438	714.834716796875	836.220703125	1272.427856445312	560.306884765625	949.9461669921875	1315.273559570312	518.8297119140625	934.2508544921875	1201.686279296875	448.920166015625	915.3924560546875	1025.838623046875	414.7723083496094	822.0142822265625	995.2658081054688	441.3924255371094	1063.266723632812	945.4910888671875	540.0014038085938	1043.85546875	872.177001953125	483.4176330566406	963.04052734375	982.5718383789062	435.754150390625	1134.545776367188	810.5546875	586.9564208984375	1090.427978515625	848.3820190429688	500.0594177246094	1119.781372070312	883.9337768554688	544.9856567382812	830.7776489257812	1329.977416992188	804.8613891601562	794.4241333007812	1267.538452148438	857.116455078125	778.6531372070312	1014.889221191406	926.9822998046875	751.4358520507812	976.806884765625	879.9752807617188	982.920654296875	944.2286376953125	955.3672485351562	932.5576782226562	884.4507446289062	1000.749816894531	805.9019775390625	977.0689086914062	945.5623168945312	1085.667114257812	828.787353515625	1002.575988769531	1049.11181640625	890.211181640625	1004.905456542969	995.4274291992188	846.968017578125	1024.644775390625	802.9769897460938	1461.051147460938	711.30810546875	963.5239868164062	1567.591186523438	657.5462036132812	892.8981323242188	1553.408325195312	762.6224975585938	882.119873046875	1470.4482421875	573.4564819335938	1015.072143554688	843.9349975585938	546.6585083007812	906.6564331054688	886.8499145507812	851.3573608398438	1043.618041992188	894.2156982421875	651.6053466796875	1213.698486328125	526.9483642578125	723.63037109375	1142.483032226562	647.5858764648438	655.2391357421875	1147.052001953125	96.51951599121094	636.1715698242188	1212.001953125	384.6914672851562	696.1118774414062	1293.300659179688	53.03900527954102	760.6831665039062	1215.361938476562	64.51579284667969	765.0060424804688	1245.550903320312	64.78897857666016	664.5225219726562	1081.452026367188	102.2917404174805	672.6278076171875	861.8355712890625	451.0713195800781	779.25439453125	828.5162963867188	702.24658203125	858.935302734375	715.951904296875	71.28593444824219	606.4331665039062	849.3494873046875	307.5306091308594	735.1065063476562	888.2218017578125	32.32228851318359	699.0890502929688	865.9635620117188	39.64264678955078	627.4075317382812	789.2255249023438	42.78680038452148	686.2582397460938	702.6259765625	74.79293823242188	536.329345703125	788.8604125976562	834.7720336914062	853.053955078125	
216	2.15	787.6571044921875	925.9539794921875	691.1769409179688	858.6929931640625	911.1157836914062	591.055419921875	821.6849365234375	996.75732421875	645.793212890625	1022.087768554688	1167.3876953125	723.419677734375	803.4615478515625	1103.02001953125	645.915771484375	843.9396362304688	1334.742919921875	657.12890625	987.212158203125	1260.303588867188	707.0499877929688	769.8959350585938	1214.247192382812	727.3776245117188	847.7420654296875	1277.462646484375	571.362060546875	960.3431396484375	1320.290893554688	527.4413452148438	940.7091064453125	1209.309448242188	457.3091125488281	918.16796875	1034.670532226562	420.5091247558594	825.9778442382812	1004.347534179688	451.1706237792969	1071.253540039062	951.2813720703125	537.3089599609375	1048.852172851562	877.975830078125	481.9749145507812	966.545166015625	990.779296875	438.3982543945312	1143.938720703125	816.6397705078125	581.6970825195312	1096.655517578125	854.5470581054688	495.9778137207031	1127.600219726562	889.683837890625	539.6809692382812	847.2937622070312	1335.4931640625	815.0165405273438	812.283447265625	1273.249633789062	868.50048828125	800.3132934570312	1021.122985839844	938.559814453125	772.1207275390625	982.3211059570312	892.7960205078125	1006.457092285156	954.7273559570312	962.3960571289062	958.9038696289062	893.6319580078125	1008.942443847656	828.6497802734375	984.0266723632812	956.92138671875	1113.885131835938	842.8634033203125	1007.406188964844	1075.28076171875	903.1332397460938	1010.702392578125	1023.344299316406	857.9671020507812	1031.10400390625	816.3021850585938	1465.873168945312	719.9140014648438	977.1812744140625	1572.674682617188	667.6131591796875	905.9200439453125	1557.78955078125	772.1513061523438	896.2710571289062	1476.192138671875	582.3460083007812	1031.3623046875	850.8707885742188	556.9913940429688	921.47998046875	891.3147583007812	861.2044067382812	1058.768920898438	900.6511840820312	662.2734375	1225.2216796875	529.6779174804688	733.4619750976562	1156.441040039062	652.4814453125	665.5330810546875	1185.474365234375	88.1917724609375	668.6338500976562	1232.151977539062	384.1314392089844	711.943359375	1330.81005859375	56.34787368774414	798.1644897460938	1252.538330078125	66.36222076416016	800.120361328125	1284.419189453125	60.78517913818359	700.412353515625	1119.1962890625	94.86959838867188	703.3431396484375	866.5596313476562	456.0795593261719	784.5396118164062	840.7777099609375	706.9935302734375	867.4854125976562	716.741943359375	76.65230560302734	610.1376342773438	851.9994506835938	312.3849792480469	740.537353515625	888.254150390625	32.31427764892578	699.505615234375	866.1177368164062	41.91821670532227	628.8015747070312	789.6661987304688	43.33034896850586	688.2645263671875	703.6876831054688	82.97242736816406	540.3226318359375	803.4266967773438	839.9747924804688	862.302490234375	
217	2.16	803.2774047851562	931.76611328125	700.387939453125	875.1259765625	917.0452880859375	600.838134765625	837.5715942382812	1001.832458496094	656.8353881835938	1037.5029296875	1172.936401367188	731.5204467773438	817.6880493164062	1107.663940429688	657.5341796875	857.4949340820312	1339.270629882812	667.6534423828125	1002.0234375	1265.797729492188	715.2582397460938	784.9945068359375	1218.766723632812	739.3624267578125	859.7316284179688	1282.380859375	582.2977294921875	971.423095703125	1325.072265625	536.450927734375	948.0620727539062	1216.707397460938	466.3568725585938	921.5045776367188	1043.522094726562	427.1869201660156	830.6573486328125	1013.355529785156	461.6743774414062	1079.313842773438	956.9669799804688	535.48876953125	1053.964721679688	883.83837890625	481.3493347167969	970.4474487304688	999.0279541015625	441.96533203125	1153.499267578125	822.4667358398438	576.5319213867188	1102.871948242188	860.7352905273438	492.42724609375	1135.4072265625	895.375244140625	534.9781494140625	863.4086303710938	1340.596435546875	824.9789428710938	829.624755859375	1278.522705078125	879.5009155273438	821.5941772460938	1026.994262695312	949.553466796875	792.29248046875	987.390625	905.1701049804688	1029.342895507812	964.8316040039062	968.9541015625	984.6075439453125	902.5914306640625	1016.734985351562	850.852294921875	990.5714111328125	967.6380004882812	1141.151733398438	856.5079956054688	1011.633972167969	1100.661865234375	915.6245727539062	1015.881896972656	1050.500244140625	868.7813110351562	1037.089477539062	829.6461181640625	1470.50048828125	728.5310668945312	990.8880004882812	1577.363403320312	677.442626953125	918.97412109375	1562.01953125	781.4139404296875	910.4008178710938	1481.357543945312	591.2825317382812	1047.878540039062	857.3357543945312	567.5234375	936.0866088867188	895.6401977539062	870.95458984375	1074.04248046875	906.6716918945312	673.1577758789062	1236.355590820312	531.0466918945312	742.8262939453125	1170.452514648438	656.3588256835938	675.4522705078125	1221.798828125	81.80069732666016	700.2144165039062	1251.390502929688	383.1325988769531	727.2860107421875	1364.958740234375	59.87727355957031	834.52392578125	1286.546752929688	69.01140594482422	833.9398803710938	1320.632934570312	57.92452239990234	735.4525146484375	1154.799194335938	89.65746307373047	732.9027709960938	872.1417846679688	460.9840393066406	791.176513671875	852.7940063476562	711.8162841796875	876.2150268554688	717.8660888671875	82.59180450439453	614.4555053710938	855.2597045898438	317.4526672363281	747.0550537109375	888.3273315429688	32.20951843261719	700.0869750976562	866.3754272460938	44.44782257080078	630.4989013671875	790.228759765625	43.92997360229492	690.5800170898438	705.2077026367188	92.0107421875	545.0736694335938	817.8424682617188	845.2080078125	871.3951416015625	
